# xmcd
#
# Track frame offsets: 
#        150
#        12741
#        28279
#        37840
#        56438
#        70267
#        85886
#        105146
#        120722
#        133935
#        145780
#
# Disc length: 2168 seconds
#
# Revision: 0
# Processed by: cddbd v1.5.2PL0 Copyright (c) Steve Scherf et al.
# Submitted via: ExactAudioCopy v0.95b4
#
DISCID=9308760b
DTITLE=Ted Russell Kamp - Nashville Fine Line
DYEAR=2006
DGENRE=Country Rock
TTITLE0=So Many Honky Tonks, So Little Time
TTITLE1=The Way I Met Her
TTITLE2=One More Drink Before I Go
TTITLE3=Just For You
TTITLE4=Goin' Goin' Goin' Gone
TTITLE5=Swamp Water Whiskey
TTITLE6=The Straightaway
TTITLE7=Friday In My Mind
TTITLE8=Down In Mexico (Juarez, Mexico)
TTITLE9=Getaway
TTITLE10=Living Proof
EXTD=
EXTT0=
EXTT1=
EXTT2=
EXTT3=
EXTT4=
EXTT5=
EXTT6=
EXTT7=
EXTT8=
EXTT9=
EXTT10=
PLAYORDER=
